<?xml version="1.0" encoding="UTF-8" standalone="no"?>
<svg width="28px" height="30px" viewBox="0 0 28 30" version="1.1" xmlns="http://www.w3.org/2000/svg" xmlns:xlink="http://www.w3.org/1999/xlink" xmlns:sketch="http://www.bohemiancoding.com/sketch/ns">
    <!-- Generator: Sketch 3.4.4 (17249) - http://www.bohemiancoding.com/sketch -->
    <title>fire</title>
    <desc>Created with Sketch.</desc>
    <defs></defs>
    <g id="Page-1" stroke="none" stroke-width="1" fill="none" fill-rule="evenodd" sketch:type="MSPage">
        <g id="home-1" sketch:type="MSArtboardGroup" transform="translate(-93.000000, -152.000000)" fill="#CA3C3C">
            <g id="campaign" sketch:type="MSLayerGroup" transform="translate(80.000000, 152.000000)">
                <g id="fire" transform="translate(13.000000, 0.000000)" sketch:type="MSShapeGroup">
                    <path d="M27.8697222,21.4914474 C27.8697222,24.8984211 26.6801111,27.6339474 24.6925,29.6313158 C23.8256667,27.6260526 22.5147222,27.3138158 22.0834444,23.5752632 C22.0348333,23.1536842 21.9111667,22.7502632 21.6747222,22.4348684 C20.23,20.5042105 21.105,25.9811842 19.1978889,23.7292105 C17.9787222,22.2903947 15.5633333,11.6226316 15.1336111,15.2384211 C15.0243333,16.1577632 11.4702778,26.7059211 10.3117778,23.4256579 C9.74788889,21.8190789 9.219,20.4375 8.69011111,19.9046053 C8.08344444,19.2923684 7.83455556,22.6436842 6.64844444,24.3809211 C5.80027778,25.6121053 4.33066667,27.72 3.40472222,29.7252632 C1.35916667,27.72 0.130277778,24.9528947 0.130277778,21.4914474 C0.130277778,18.4717105 3.5315,13.6748684 5.08472222,11.3546053 C8.14566667,6.78236842 6.82694444,5.18881579 7.56194444,5.93092105 C8.20361111,6.57868421 8.84138889,8.25197368 9.52972222,10.2019737 C10.9301111,14.1809211 13.0919444,0.274342105 15.3751111,0.274342105 C17.0080556,0.274342105 13.9957222,2.69565789 20.2984444,10.5690789 C21.4849444,12.0517105 22.3545,10.7727632 22.0286111,9.40263158 C21.6883333,7.97171053 22.3506111,6.69789474 22.9522222,8.36644737 C23.1147778,8.81644737 23.6510556,9.88934211 23.8023333,10.3835526 C24.9942778,14.2875 27.8697222,17.5440789 27.8697222,21.4914474 L27.8697222,21.4914474 Z" id="Shape"></path>
                </g>
            </g>
        </g>
    </g>
</svg>
